P3
64 48
255
221
221
221
222
222
222
29
29
29
34
34
34
33
33
33
209
209
209
244
244
244
244
244
244
255
255
255
22
22
22
34
34
34
34
34
34
164
164
164
244
244
244
244
244
244
255
255
255
19
19
19
34
34
34
34
34
34
116
116
116
244
244
244
244
244
244
255
255
255
24
24
24
34
34
34
34
34
34
71
71
71
244
244
244
244
244
244
250
250
250
39
39
39
34
34
34
34
34
34
39
39
39
250
250
250
244
244
244
244
244
244
71
71
71
34
34
34
34
34
34
24
24
24
255
255
255
244
244
244
244
244
244
116
116
116
34
34
34
34
34
34
19
19
19
255
255
255
244
244
244
244
244
244
164
164
164
34
34
34
34
34
34
22
22
22
255
255
255
244
244
244
244
244
244
209
209
209
33
33
33
34
34
34
29
29
29
222
222
222
221
221
221
0
0
0
34
34
34
135
135
135
128
128
128
129
129
129
145
145
145
126
126
126
127
127
127
141
141
141
136
136
136
128
128
128
128
128
128
145
145
145
126
126
126
127
127
127
138
138
138
140
140
140
128
128
128
127
127
127
146
146
146
126
126
126
127
127
127
134
134
134
143
143
143
128
128
128
127
127
127
146
146
146
128
128
128
127
127
127
131
131
131
145
145
145
128
128
128
128
128
128
145
145
145
131
131
131
127
127
127
128
128
128
146
146
146
127
127
127
128
128
128
143
143
143
134
134
134
127
127
127
126
126
126
146
146
146
127
127
127
128
128
128
140
140
140
138
138
138
127
127
127
126
126
126
145
145
145
128
128
128
128
128
128
136
136
136
141
141
141
127
127
127
126
126
126
145
145
145
129
129
129
128
128
128
135
135
135
34
34
34
0
0
0
0
0
0
35
35
35
135
135
135
128
128
128
129
129
129
145
145
145
127
127
127
128
128
128
142
142
142
135
135
135
128
128
128
127
127
127
146
146
146
127
127
127
128
128
128
139
139
139
139
139
139
128
128
128
127
127
127
146
146
146
127
127
127
128
128
128
135
135
135
142
142
142
128
128
128
127
127
127
144
144
144
123
123
123
121
121
121
146
146
146
170
170
170
169
169
169
169
169
169
170
170
170
146
146
146
121
121
121
123
123
123
144
144
144
127
127
127
128
128
128
142
142
142
135
135
135
128
128
128
127
127
127
146
146
146
127
127
127
128
128
128
139
139
139
139
139
139
128
128
128
127
127
127
146
146
146
127
127
127
128
128
128
135
135
135
142
142
142
128
128
128
127
127
127
145
145
145
129
129
129
128
128
128
135
135
135
35
35
35
0
0
0
0
0
0
30
30
30
134
134
134
126
126
126
127
127
127
144
144
144
125
125
125
126
126
126
141
141
141
134
134
134
126
126
126
126
126
126
145
145
145
125
125
125
126
126
126
138
138
138
138
138
138
126
126
126
125
125
125
145
145
145
126
126
126
126
126
126
134
134
134
139
139
139
131
131
131
169
169
169
211
211
211
242
242
242
255
255
255
255
255
255
255
255
255
255
255
255
255
255
255
255
255
255
255
255
255
255
255
255
242
242
242
211
211
211
169
169
169
131
131
131
139
139
139
134
134
134
126
126
126
126
126
126
145
145
145
125
125
125
126
126
126
138
138
138
138
138
138
126
126
126
125
125
125
145
145
145
126
126
126
126
126
126
134
134
134
141
141
141
126
126
126
125
125
125
144
144
144
127
127
127
126
126
126
134
134
134
30
30
30
0
0
0
140
140
140
155
155
155
162
162
162
159
159
159
160
160
160
171
171
171
159
159
159
159
159
159
169
169
169
164
164
164
159
159
159
159
159
159
172
172
172
159
159
159
159
159
159
167
167
167
167
167
167
159
159
159
159
159
159
172
172
172
159
159
159
159
159
159
168
168
168
219
219
219
255
255
255
109
109
109
115
115
115
116
116
116
116
116
116
116
116
116
116
116
116
116
116
116
116
116
116
116
116
116
116
116
116
116
116
116
116
116
116
115
115
115
109
109
109
255
255
255
219
219
219
168
168
168
159
159
159
159
159
159
172
172
172
159
159
159
159
159
159
167
167
167
167
167
167
159
159
159
159
159
159
172
172
172
159
159
159
159
159
159
164
164
164
169
169
169
159
159
159
159
159
159
171
171
171
160
160
160
159
159
159
162
162
162
155
155
155
140
140
140
255
255
255
255
255
255
128
128
128
127
127
127
128
128
128
145
145
145
126
126
126
127
127
127
142
142
142
135
135
135
127
127
127
127
127
127
145
145
145
126
126
126
127
127
127
139
139
139
139
139
139
127
127
127
126
126
126
145
145
145
122
122
122
208
208
208
250
250
250
255
255
255
255
255
255
0
0
0
0
0
0
0
0
0
0
0
0
0
0
0
0
0
0
0
0
0
0
0
0
0
0
0
0
0
0
0
0
0
0
0
0
0
0
0
0
0
0
255
255
255
255
255
255
250
250
250
208
208
208
122
122
122
145
145
145
126
126
126
127
127
127
139
139
139
139
139
139
127
127
127
126
126
126
145
145
145
127
127
127
127
127
127
135
135
135
142
142
142
127
127
127
126
126
126
145
145
145
128
128
128
127
127
127
128
128
128
255
255
255
255
255
255
255
255
255
253
253
253
129
129
129
128
128
128
129
129
129
145
145
145
127
127
127
128
128
128
142
142
142
135
135
135
128
128
128
127
127
127
146
146
146
127
127
127
128
128
128
139
139
139
139
139
139
128
128
128
123
123
123
171
171
171
244
244
244
255
255
255
255
255
255
255
255
255
255
255
255
0
0
0
0
0
0
0
0
0
0
0
0
0
0
0
0
0
0
0
0
0
0
0
0
0
0
0
0
0
0
0
0
0
0
0
0
0
0
0
0
0
0
255
255
255
255
255
255
255
255
255
255
255
255
244
244
244
171
171
171
123
123
123
128
128
128
139
139
139
139
139
139
128
128
128
127
127
127
146
146
146
127
127
127
128
128
128
135
135
135
142
142
142
128
128
128
127
127
127
145
145
145
129
129
129
128
128
128
129
129
129
253
253
253
255
255
255
242
242
242
242
242
242
133
133
133
132
132
132
133
133
133
149
149
149
131
131
131
132
132
132
146
146
146
139
139
139
132
132
132
131
131
131
149
149
149
131
131
131
132
132
132
143
143
143
143
143
143
132
132
132
176
176
176
249
249
249
242
242
242
253
253
253
255
255
255
253
253
253
255
255
255
0
0
0
13
13
13
13
13
13
13
13
13
13
13
13
13
13
13
13
13
13
13
13
13
13
13
13
13
13
13
13
13
13
13
13
13
13
13
13
0
0
0
255
255
255
255
255
255
255
255
255
253
253
253
242
242
242
249
249
249
176
176
176
132
132
132
143
143
143
143
143
143
132
132
132
131
131
131
149
149
149
131
131
131
132
132
132
139
139
139
146
146
146
132
132
132
131
131
131
149
149
149
133
133
133
132
132
132
133
133
133
242
242
242
242
242
242
12
12
12
46
46
46
138
138
138
132
132
132
133
133
133
149
149
149
131
131
131
132
132
132
146
146
146
139
139
139
132
132
132
131
131
131
149
149
149
131
131
131
132
132
132
142
142
142
146
146
146
46
46
46
12
12
12
13
13
13
12
12
12
214
214
214
255
255
255
227
227
227
255
255
255
241
241
241
242
242
242
242
242
242
242
242
242
242
242
242
242
242
242
242
242
242
242
242
242
242
242
242
242
242
242
242
242
242
242
242
242
242
242
242
241
241
241
255
255
255
255
255
255
255
255
255
214
214
214
12
12
12
13
13
13
12
12
12
46
46
46
146
146
146
142
142
142
132
132
132
131
131
131
149
149
149
131
131
131
132
132
132
139
139
139
146
146
146
132
132
132
131
131
131
149
149
149
133
133
133
132
132
132
138
138
138
46
46
46
12
12
12
0
0
0
35
35
35
135
135
135
128
128
128
129
129
129
145
145
145
127
127
127
128
128
128
142
142
142
135
135
135
128
128
128
127
127
127
146
146
146
127
127
127
128
128
128
146
146
146
62
62
62
0
0
0
0
0
0
0
0
0
0
0
0
211
211
211
255
255
255
226
226
226
255
255
255
255
255
255
255
255
255
255
255
255
255
255
255
255
255
255
255
255
255
255
255
255
255
255
255
255
255
255
255
255
255
255
255
255
255
255
255
255
255
255
255
255
255
255
255
255
255
255
255
255
255
255
211
211
211
0
0
0
0
0
0
0
0
0
0
0
0
62
62
62
146
146
146
128
128
128
127
127
127
146
146
146
127
127
127
128
128
128
135
135
135
142
142
142
128
128
128
127
127
127
145
145
145
129
129
129
128
128
128
135
135
135
35
35
35
0
0
0
0
0
0
33
33
33
134
134
134
127
127
127
128
128
128
145
145
145
126
126
126
127
127
127
142
142
142
135
135
135
127
127
127
127
127
127
145
145
145
126
126
126
128
128
128
59
59
59
0
0
0
0
0
0
0
0
0
0
0
0
0
0
0
211
211
211
255
255
255
227
227
227
255
255
255
255
255
255
255
255
255
255
255
255
255
255
255
255
255
255
255
255
255
255
255
255
255
255
255
255
255
255
255
255
255
255
255
255
255
255
255
255
255
255
255
255
255
255
255
255
255
255
255
255
255
255
213
213
213
0
0
0
0
0
0
0
0
0
0
0
0
0
0
0
61
61
61
127
127
127
126
126
126
145
145
145
127
127
127
127
127
127
135
135
135
142
142
142
127
127
127
126
126
126
145
145
145
128
128
128
127
127
127
134
134
134
33
33
33
0
0
0
115
115
115
134
134
134
163
163
163
159
159
159
160
160
160
171
171
171
159
159
159
159
159
159
169
169
169
164
164
164
159
159
159
159
159
159
172
172
172
159
159
159
153
153
153
116
116
116
119
119
119
29
29
29
30
30
30
58
58
58
115
115
115
235
235
235
183
183
183
151
151
151
204
204
204
255
255
255
250
250
250
172
172
172
169
169
169
197
197
197
255
255
255
255
255
255
163
163
163
169
169
169
224
224
224
255
255
255
252
252
252
174
174
174
167
167
167
218
218
218
255
255
255
240
240
240
142
142
142
29
29
29
87
87
87
116
116
116
117
117
117
27
27
27
27
27
27
161
161
161
158
158
158
172
172
172
159
159
159
159
159
159
164
164
164
169
169
169
159
159
159
159
159
159
171
171
171
160
160
160
159
159
159
163
163
163
134
134
134
115
115
115
255
255
255
255
255
255
127
127
127
126
126
126
127
127
127
144
144
144
125
125
125
126
126
126
141
141
141
134
134
134
126
126
126
126
126
126
145
145
145
122
122
122
86
86
86
255
255
255
255
255
255
63
63
63
66
66
66
130
130
130
255
255
255
255
255
255
91
91
91
59
59
59
141
141
141
255
255
255
245
245
245
66
66
66
58
58
58
126
126
126
255
255
255
255
255
255
45
45
45
59
59
59
189
189
189
255
255
255
248
248
248
70
70
70
54
54
54
174
174
174
255
255
255
224
224
224
52
52
52
65
65
65
197
197
197
255
255
255
255
255
255
58
58
58
59
59
59
229
229
229
132
132
132
145
145
145
126
126
126
126
126
126
134
134
134
141
141
141
126
126
126
125
125
125
144
144
144
127
127
127
126
126
126
127
127
127
255
255
255
255
255
255
255
255
255
253
253
253
129
129
129
128
128
128
129
129
129
145
145
145
127
127
127
128
128
128
142
142
142
135
135
135
128
128
128
127
127
127
147
147
148
95
95
95
85
85
85
255
255
255
255
255
255
61
61
61
64
64
64
127
127
127
255
255
255
255
255
255
95
95
95
63
63
63
144
144
144
255
255
255
245
245
245
71
71
71
62
62
62
129
129
129
255
255
255
255
255
255
50
50
50
64
64
64
190
191
191
255
255
255
248
248
248
74
74
74
58
58
59
176
176
176
255
255
255
225
225
225
56
56
56
63
63
63
192
192
192
255
255
255
255
255
255
57
57
57
57
57
57
235
235
235
188
188
188
143
143
143
127
127
127
128
128
128
135
135
135
142
142
142
128
128
128
127
127
127
145
145
145
129
129
129
128
128
128
129
129
129
253
253
253
255
255
255
255
255
255
255
255
255
128
128
128
128
128
128
128
128
128
145
145
145
126
126
126
127
127
127
142
142
142
135
135
135
128
128
128
127
127
127
142
142
142
58
57
60
85
84
86
255
255
255
255
255
255
61
60
62
65
63
64
128
126
126
255
255
255
255
255
255
96
93
94
64
62
63
145
142
142
255
255
255
245
245
245
71
70
72
62
62
63
130
128
129
255
255
255
255
255
255
49
50
49
64
64
64
189
191
190
255
255
255
248
250
247
74
74
74
58
58
58
174
177
176
255
255
255
223
226
224
55
57
57
62
64
64
191
193
192
254
255
254
255
255
255
57
58
55
57
58
56
235
235
233
255
255
255
152
152
151
127
127
128
128
128
128
135
135
135
142
142
142
127
127
127
126
126
126
145
145
145
128
128
128
128
128
128
128
128
128
255
255
255
255
255
255
33
33
33
65
65
65
145
145
145
139
139
139
140
140
140
155
155
155
138
138
138
139
139
139
152
152
152
146
146
146
139
139
139
138
138
139
205
205
101
229
229
63
232
232
66
255
255
91
255
255
90
222
229
72
60
229
232
72
237
237
89
254
254
90
255
255
68
233
233
63
229
229
75
240
244
91
255
84
89
253
89
65
230
65
64
229
64
73
237
73
90
254
90
85
255
85
234
54
235
229
64
229
245
81
245
254
90
254
253
89
253
230
66
231
228
64
236
242
79
75
254
90
90
249
86
86
229
63
64
229
64
65
246
81
82
255
90
87
97
90
245
63
64
228
63
64
228
86
87
250
90
91
254
112
111
212
139
139
139
139
139
139
146
146
146
152
152
152
139
139
139
138
138
138
155
155
155
140
140
140
139
139
139
145
145
145
65
65
65
33
33
33
0
0
0
35
35
35
135
135
135
128
128
128
129
129
129
145
145
145
127
127
127
128
128
128
142
142
142
135
135
135
128
128
128
125
124
129
242
242
69
255
255
63
255
255
63
255
255
63
255
255
63
248
255
74
59
255
255
63
255
255
63
255
255
63
255
255
63
255
255
63
255
255
64
255
255
64
255
56
64
255
64
64
255
64
64
255
64
64
255
64
64
255
64
56
255
56
255
54
255
255
64
255
255
64
255
255
64
255
255
64
255
255
64
255
255
65
255
254
64
59
254
64
64
254
64
64
254
64
64
254
64
64
254
64
64
255
65
61
72
64
244
64
65
254
64
65
254
64
65
254
64
65
254
70
71
239
130
130
126
128
128
128
135
135
135
142
142
142
128
128
128
127
127
127
145
145
145
129
129
129
128
128
128
135
135
135
35
35
35
0
0
0
0
0
0
35
35
35
135
135
135
128
128
128
129
129
129
145
145
145
127
127
127
128
128
128
142
142
142
135
135
135
127
128
128
157
157
112
255
255
60
255
255
64
255
255
63
255
255
63
255
255
63
248
255
74
59
255
255
63
255
255
63
255
255
63
255
255
63
255
255
63
255
255
64
255
255
64
255
56
64
255
64
64
255
64
64
255
64
64
255
64
64
255
64
56
255
57
255
54
255
255
64
255
255
64
255
255
64
255
255
64
255
255
64
255
255
65
255
254
64
59
254
64
64
254
64
64
254
64
64
254
64
64
254
64
64
255
65
61
72
64
244
64
65
254
64
65
254
64
65
254
64
65
254
61
63
255
113
114
158
129
128
128
135
135
135
142
142
142
128
128
128
127
127
127
145
145
145
129
129
129
128
128
128
135
135
135
35
35
35
0
0
0
88
88
88
111
111
111
159
159
159
155
155
155
155
155
155
168
168
168
154
154
154
155
155
155
165
165
165
160
160
160
153
153
155
221
222
91
255
255
62
255
255
63
255
255
63
255
255
63
255
255
63
248
255
74
59
255
255
63
255
255
63
255
255
63
255
255
63
255
255
63
255
255
64
255
255
64
255
56
64
255
64
64
255
64
64
255
64
65
255
65
51
179
52
47
181
48
180
46
179
179
49
178
255
65
255
255
64
255
255
64
255
255
64
255
255
65
255
254
64
59
254
64
64
254
64
64
254
64
64
254
64
64
254
64
64
255
65
61
72
64
244
64
65
254
64
65
254
64
65
254
64
65
254
63
64
255
91
91
216
156
156
153
160
160
160
165
165
165
155
155
155
154
154
154
168
168
168
155
155
155
155
155
155
159
159
159
111
111
111
88
88
88
255
255
255
255
255
255
126
126
126
126
126
126
127
127
127
143
143
143
125
125
125
126
126
126
140
140
140
133
133
133
128
127
124
249
249
67
255
255
63
255
255
63
255
255
63
255
255
63
255
255
63
248
255
74
59
255
255
63
255
255
63
255
255
63
255
255
63
255
255
63
255
255
64
255
255
64
255
56
64
255
64
64
255
64
64
255
64
66
255
66
14
31
15
21
13
21
13
21
13
30
12
34
255
66
255
255
64
255
255
64
255
255
64
255
255
65
255
254
64
59
254
64
64
254
64
64
254
64
64
254
64
64
254
64
64
255
65
61
72
64
244
64
65
254
64
65
254
64
65
254
64
65
254
64
65
254
67
67
245
125
125
128
133
133
133
140
140
140
126
126
126
125
125
125
143
143
143
127
127
127
126
126
126
126
126
126
255
255
255
255
255
255
255
255
255
253
253
253
129
129
129
128
128
128
129
129
129
145
145
145
127
127
127
128
128
128
142
142
142
135
135
135
137
138
124
251
251
66
255
255
63
255
255
63
255
255
63
255
255
63
255
255
63
248
255
74
59
255
255
63
255
255
63
255
255
63
255
255
63
255
255
63
255
255
64
255
255
64
255
56
64
255
64
64
255
64
64
255
64
66
255
66
17
38
17
23
22
22
22
22
22
38
14
41
255
66
255
255
64
255
255
64
255
255
64
255
255
65
255
254
64
59
254
64
64
254
64
64
254
64
64
254
64
64
254
64
64
255
65
61
72
64
244
64
65
254
64
65
254
64
65
254
64
65
254
64
65
254
67
67
248
123
124
138
135
135
135
142
142
142
128
128
128
127
127
127
145
145
145
129
129
129
128
128
128
129
129
129
253
253
253
255
255
255
255
255
255
255
255
255
126
126
126
126
126
126
127
127
127
144
144
144
125
125
125
126
126
126
140
140
140
133
133
133
143
142
119
255
255
67
255
255
64
255
255
66
255
255
66
255
255
65
255
255
65
255
255
76
63
255
255
65
255
255
67
255
255
67
255
255
66
255
255
66
255
255
68
255
255
66
255
59
66
255
66
67
255
67
67
255
67
68
255
69
16
39
18
22
21
22
21
22
22
41
13
39
255
68
255
255
67
255
255
67
255
255
66
255
255
67
255
255
66
62
255
66
66
255
66
66
255
67
67
255
67
67
255
66
66
255
67
63
74
66
251
65
67
255
65
67
255
66
68
255
66
68
255
65
67
255
68
68
255
119
119
143
133
133
133
140
140
140
126
126
126
125
125
125
144
144
144
127
127
127
126
126
126
126
126
126
255
255
255
255
255
255
60
60
60
87
87
87
153
153
153
147
147
147
148
148
148
161
161
161
147
147
147
147
147
147
159
159
159
153
153
153
135
135
128
60
60
19
89
88
46
59
59
18
61
61
19
78
77
36
78
78
36
59
61
21
16
59
60
45
88
89
18
60
60
19
61
61
30
72
73
40
83
83
18
60
62
15
59
14
45
88
45
19
62
20
18
61
18
23
68
24
31
35
30
22
21
22
21
22
21
37
30
37
68
23
68
61
17
61
63
18
62
88
44
87
60
15
61
60
16
16
82
38
39
72
28
29
61
17
18
60
16
17
88
45
45
60
15
15
18
16
59
33
33
78
33
33
77
17
16
61
15
14
59
44
44
88
16
15
61
128
128
135
153
153
153
159
159
159
147
147
147
147
147
147
161
161
161
148
148
148
147
147
147
153
153
153
87
87
87
60
60
60
0
0
0
35
35
35
135
135
135
128
128
128
129
129
129
145
145
145
127
127
127
128
128
128
142
142
142
135
135
135
109
109
109
6
6
6
44
44
44
5
5
5
8
8
8
30
30
30
30
30
30
8
8
8
5
5
5
44
44
44
6
7
7
8
8
8
22
23
23
36
36
36
7
7
7
6
6
6
43
43
43
10
10
10
8
8
8
15
15
15
40
40
40
29
29
29
29
29
29
40
40
40
15
15
15
8
8
8
10
10
10
43
43
43
6
6
6
7
7
7
36
36
36
23
23
22
8
8
8
7
7
6
44
44
44
5
5
5
8
8
8
30
30
30
30
30
30
8
8
8
5
5
5
44
44
44
6
6
6
109
109
109
135
135
135
142
142
142
128
128
128
127
127
127
145
145
145
129
129
129
128
128
128
135
135
135
35
35
35
0
0
0
0
0
0
35
35
35
135
135
135
128
128
128
129
129
129
145
145
145
127
127
127
128
128
128
142
142
142
135
135
135
109
109
109
6
6
6
44
44
44
5
5
5
8
8
8
30
30
30
30
30
30
8
8
8
5
5
5
44
44
44
7
7
7
8
8
8
23
23
23
36
36
36
7
7
7
6
6
6
43
43
43
10
10
10
8
8
8
15
15
15
40
40
40
29
29
29
29
29
29
40
40
40
15
15
15
8
8
8
10
10
10
43
43
43
6
6
6
7
7
7
36
36
36
23
23
23
8
8
8
7
7
7
44
44
44
5
5
5
8
8
8
30
30
30
30
30
30
8
8
8
5
5
5
44
44
44
6
6
6
109
109
109
135
135
135
142
142
142
128
128
128
127
127
127
145
145
145
129
129
129
128
128
128
135
135
135
35
35
35
0
0
0
60
60
60
87
87
87
153
153
153
147
147
147
148
148
148
161
161
161
147
147
147
147
147
147
159
159
159
153
153
153
132
132
132
27
27
27
56
56
56
36
36
36
27
27
27
45
45
45
55
55
55
27
27
27
30
30
30
55
55
55
28
28
28
34
34
34
44
44
44
50
50
50
28
28
28
27
27
27
63
63
63
32
32
32
28
28
28
42
42
42
33
33
33
22
22
22
22
22
22
30
30
30
38
38
38
31
31
31
32
32
32
58
58
58
29
29
29
28
28
28
54
54
54
43
43
43
30
30
30
33
33
33
56
56
56
32
32
32
31
31
31
48
48
48
48
48
48
31
31
31
29
29
29
59
59
59
30
30
30
130
130
130
153
153
153
159
159
159
147
147
147
147
147
147
161
161
161
148
148
148
147
147
147
153
153
153
87
87
87
60
60
60
255
255
255
255
255
255
126
126
126
126
126
126
127
127
127
144
144
144
125
125
125
126
126
126
140
140
140
133
133
133
136
136
136
118
118
118
117
117
117
163
163
163
114
114
114
120
120
120
162
162
162
114
114
114
137
137
137
116
116
116
126
126
126
148
148
148
139
139
139
118
118
118
123
123
123
125
125
125
153
153
153
130
130
130
120
120
120
154
154
154
34
34
34
22
22
22
22
22
22
19
19
19
135
135
135
132
132
132
132
132
132
131
131
131
133
133
133
121
121
121
134
134
134
134
134
134
128
128
128
146
146
146
120
120
120
145
145
145
133
133
133
133
133
133
133
133
133
133
133
133
133
133
133
132
132
132
133
133
133
126
126
126
133
133
133
140
140
140
126
126
126
125
125
125
144
144
144
127
127
127
126
126
126
126
126
126
255
255
255
255
255
255
255
255
255
253
253
253
129
129
129
128
128
128
129
129
129
145
145
145
127
127
127
128
128
128
142
142
142
135
135
135
137
137
137
114
114
114
114
114
114
158
158
158
111
111
111
116
116
116
157
157
157
110
110
110
133
133
133
114
114
114
122
122
122
143
143
143
136
136
136
115
115
115
119
119
119
121
121
121
149
149
149
126
126
126
117
117
117
149
149
149
34
34
34
22
22
22
22
22
22
19
19
19
131
131
131
128
128
128
128
128
128
128
128
128
129
129
129
117
117
117
131
131
131
130
130
130
124
124
124
141
141
141
117
117
117
141
141
141
129
129
129
129
129
129
129
129
129
129
129
129
129
129
129
129
129
129
129
129
129
127
127
127
135
135
135
142
142
142
128
128
128
127
127
127
145
145
145
129
129
129
128
128
128
129
129
129
253
253
253
255
255
255
255
255
255
255
255
255
126
126
126
126
126
126
127
127
127
143
143
143
125
125
125
126
126
126
140
140
140
133
133
133
128
128
128
111
111
111
114
114
114
158
158
158
111
111
111
116
116
116
157
157
157
110
110
110
133
133
133
114
114
114
122
122
122
143
143
143
136
136
136
115
115
115
119
119
119
121
121
121
149
149
149
126
126
126
117
117
117
149
149
149
31
31
31
19
19
19
19
19
19
16
16
16
131
131
131
128
128
128
128
128
128
128
128
128
129
129
129
117
117
117
131
131
131
130
130
130
124
124
124
141
141
141
117
117
117
141
141
141
129
129
129
129
129
129
129
129
129
129
129
129
129
129
129
129
129
129
129
129
129
125
125
125
133
133
133
140
140
140
126
126
126
125
125
125
143
143
143
127
127
127
126
126
126
126
126
126
255
255
255
255
255
255
88
88
88
111
111
111
159
159
159
155
155
155
155
155
155
168
168
168
154
154
154
155
155
155
165
165
165
160
160
160
155
155
155
137
137
137
113
113
113
158
158
158
111
111
111
116
116
116
157
157
157
110
110
110
133
133
133
114
114
114
122
122
122
143
143
143
136
136
136
115
115
115
119
119
119
121
121
121
149
149
149
126
126
126
117
117
117
148
148
148
86
86
86
72
72
72
80
80
80
80
80
80
129
129
129
128
128
128
128
128
128
128
128
128
129
129
129
117
117
117
131
131
131
130
130
130
124
124
124
141
141
141
117
117
117
141
141
141
129
129
129
129
129
129
129
129
129
129
129
129
129
129
129
129
129
129
128
128
128
155
155
155
160
160
160
165
165
165
155
155
155
154
154
154
168
168
168
155
155
155
155
155
155
159
159
159
111
111
111
88
88
88
0
0
0
35
35
35
135
135
135
128
128
128
129
129
129
145
145
145
127
127
127
128
128
128
142
142
142
135
135
135
127
127
127
156
156
156
112
112
112
158
158
158
111
111
111
116
116
116
157
157
157
110
110
110
133
133
133
114
114
114
122
122
122
143
143
143
136
136
136
115
115
115
119
119
119
121
121
121
149
149
149
126
126
126
117
117
117
147
147
147
128
128
128
115
115
115
130
130
130
128
128
128
128
128
128
128
128
128
128
128
128
128
128
128
129
129
129
117
117
117
131
131
131
130
130
130
124
124
124
141
141
141
117
117
117
141
141
141
129
129
129
129
129
129
129
129
129
129
129
129
129
129
129
129
129
129
121
121
121
128
128
128
135
135
135
142
142
142
128
128
128
127
127
127
145
145
145
129
129
129
128
128
128
135
135
135
35
35
35
0
0
0
0
0
0
35
35
35
135
135
135
128
128
128
129
129
129
145
145
145
127
127
127
128
128
128
142
142
142
135
135
135
128
128
128
129
129
129
111
111
111
158
158
158
111
111
111
116
116
116
157
157
157
110
110
110
133
133
133
114
114
114
122
122
122
143
143
143
136
136
136
115
115
115
119
119
119
121
121
121
149
149
149
126
126
126
117
117
117
147
147
147
127
127
127
115
115
115
130
130
130
128
128
128
128
128
128
128
128
128
128
128
128
128
128
128
129
129
129
117
117
117
131
131
131
130
130
130
124
124
124
141
141
141
117
117
117
141
141
141
129
129
129
129
129
129
129
129
129
129
129
129
129
129
129
126
126
126
128
128
128
128
128
128
135
135
135
142
142
142
128
128
128
127
127
127
145
145
145
129
129
129
128
128
128
135
135
135
35
35
35
0
0
0
33
33
33
65
65
65
145
145
145
139
139
139
140
140
140
155
155
155
138
138
138
139
139
139
152
152
152
146
146
146
139
139
139
139
139
139
130
130
130
136
136
136
96
96
96
101
101
101
136
136
136
96
96
96
122
122
122
105
105
105
113
113
113
131
131
131
124
124
124
106
106
106
109
109
109
118
118
118
143
143
143
123
123
123
115
115
115
140
140
140
124
124
124
113
113
113
134
134
134
132
132
132
132
132
132
132
132
132
132
132
132
132
132
132
132
132
132
129
129
129
140
140
140
140
140
140
135
135
135
149
149
149
129
129
129
149
149
149
146
146
146
146
146
146
146
146
146
146
146
146
146
146
146
145
145
145
139
139
139
139
139
139
146
146
146
152
152
152
139
139
139
138
138
138
155
155
155
140
140
140
139
139
139
145
145
145
65
65
65
33
33
33
255
255
255
255
255
255
128
128
128
128
128
128
128
128
128
145
145
145
126
126
126
127
127
127
142
142
142
135
135
135
128
128
128
127
127
127
139
139
139
0
0
0
0
0
0
0
0
0
0
0
0
0
0
0
52
52
52
51
51
51
50
50
50
50
50
50
50
50
50
51
51
51
48
48
48
105
105
105
102
102
102
102
102
102
102
102
102
102
102
102
102
102
102
98
98
98
157
157
157
153
153
153
153
153
153
153
153
153
153
153
153
153
153
153
150
150
150
207
207
207
205
205
205
205
205
205
205
205
205
204
204
204
205
205
205
203
203
203
255
255
255
255
255
255
255
255
255
255
255
255
255
255
255
153
153
153
127
127
127
128
128
128
135
135
135
142
142
142
127
127
127
126
126
126
145
145
145
128
128
128
128
128
128
128
128
128
255
255
255
255
255
255
255
255
255
253
253
253
129
129
129
128
128
128
129
129
129
145
145
145
127
127
127
128
128
128
142
142
142
135
135
135
128
128
128
127
127
127
149
149
149
66
66
66
0
0
0
0
0
0
0
0
0
1
1
1
52
52
52
51
51
51
51
51
51
51
51
51
51
51
51
51
51
51
48
48
48
105
105
105
102
102
102
102
102
102
102
102
102
102
102
102
102
102
102
98
98
98
157
157
157
153
153
153
153
153
153
153
153
153
153
153
153
153
153
153
150
150
150
207
207
207
204
204
204
204
204
204
204
204
204
204
204
204
204
204
204
203
203
203
254
254
254
255
255
255
255
255
255
255
255
255
187
187
187
143
143
143
127
127
127
128
128
128
135
135
135
142
142
142
128
128
128
127
127
127
145
145
145
129
129
129
128
128
128
129
129
129
253
253
253
255
255
255
255
255
255
255
255
255
127
127
127
126
126
126
127
127
127
144
144
144
125
125
125
126
126
126
141
141
141
134
134
134
126
126
126
126
126
126
145
145
145
120
120
120
4
4
4
0
0
0
0
0
0
0
0
0
47
47
47
46
46
46
46
46
46
51
51
51
52
52
52
52
52
52
49
49
49
107
107
107
104
104
104
104
104
104
104
104
104
104
104
104
104
104
104
101
101
101
161
161
161
157
157
157
157
157
157
157
157
157
157
157
157
157
157
157
154
154
154
212
212
212
209
209
209
209
209
209
208
208
208
203
203
203
203
203
203
201
201
201
254
254
254
255
255
255
255
255
255
249
249
249
131
131
131
145
145
145
126
126
126
126
126
126
134
134
134
141
141
141
126
126
126
125
125
125
144
144
144
127
127
127
126
126
126
127
127
127
255
255
255
255
255
255
115
115
115
134
134
134
163
163
163
159
159
159
160
160
160
171
171
171
159
159
159
159
159
159
169
169
169
164
164
164
159
159
159
159
159
159
172
172
172
159
159
159
136
136
136
139
139
139
140
140
140
141
141
141
165
165
165
164
164
164
165
165
165
47
47
47
23
23
23
23
23
23
22
22
22
48
48
48
47
47
47
47
47
47
47
47
47
47
47
47
47
47
47
45
45
45
71
71
71
70
70
70
70
70
70
70
70
70
70
70
70
70
70
70
68
68
68
94
94
94
93
93
93
93
93
93
117
117
117
233
233
233
232
232
232
232
232
232
255
255
255
255
255
255
255
255
255
172
172
172
158
158
158
172
172
172
159
159
159
159
159
159
164
164
164
169
169
169
159
159
159
159
159
159
171
171
171
160
160
160
159
159
159
163
163
163
134
134
134
115
115
115
0
0
0
33
33
33
134
134
134
127
127
127
128
128
128
145
145
145
126
126
126
127
127
127
142
142
142
135
135
135
127
127
127
127
127
127
145
145
145
126
126
126
128
128
128
196
196
196
255
255
255
255
255
255
255
255
255
255
255
255
255
255
255
43
43
43
0
0
0
0
0
0
0
0
0
0
0
0
0
0
0
0
0
0
0
0
0
0
0
0
0
0
0
0
0
0
0
0
0
0
0
0
0
0
0
0
0
0
0
0
0
0
0
0
0
0
0
0
0
0
0
0
0
0
0
0
42
42
42
255
255
255
255
255
255
255
255
255
255
255
255
255
255
255
193
193
193
127
127
127
126
126
126
145
145
145
127
127
127
127
127
127
135
135
135
142
142
142
127
127
127
126
126
126
145
145
145
128
128
128
127
127
127
134
134
134
33
33
33
0
0
0
0
0
0
35
35
35
135
135
135
128
128
128
129
129
129
145
145
145
127
127
127
128
128
128
142
142
142
135
135
135
128
128
128
127
127
127
146
146
146
127
127
127
128
128
128
132
132
132
214
214
214
255
255
255
255
255
255
255
255
255
255
255
255
43
44
44
0
0
0
0
0
0
0
0
0
0
0
0
0
0
0
0
0
0
0
0
0
0
0
0
0
0
0
0
0
0
0
0
0
0
0
0
0
0
0
0
0
0
0
0
0
0
0
0
0
0
0
0
0
0
0
0
0
0
0
0
43
44
44
255
255
255
255
255
255
255
255
255
255
255
255
214
214
214
132
132
132
128
128
128
127
127
127
146
146
146
127
127
127
128
128
128
135
135
135
142
142
142
128
128
128
127
127
127
145
145
145
129
129
129
128
128
128
135
135
135
35
35
35
0
0
0
12
12
12
46
46
46
138
138
138
132
132
132
133
133
133
149
149
149
131
131
131
132
132
132
146
146
146
139
139
139
132
132
132
131
131
131
149
149
149
131
131
131
132
132
132
143
143
143
140
140
140
218
218
217
255
255
245
255
255
245
255
255
246
56
54
47
15
13
7
15
13
7
15
13
7
15
13
7
15
13
7
15
13
7
15
13
7
15
14
6
15
5
6
14
4
6
14
4
6
15
5
6
15
14
7
15
13
7
15
13
7
15
13
7
15
13
7
15
13
7
15
13
7
15
13
7
56
54
47
255
255
246
255
255
245
255
255
245
218
218
217
140
140
140
143
143
143
132
132
132
131
131
131
149
149
149
131
131
131
132
132
132
139
139
139
146
146
146
132
132
132
131
131
131
149
149
149
133
133
133
132
132
132
138
138
138
46
46
46
12
12
12
242
242
242
242
242
242
133
133
133
132
132
132
133
133
133
149
149
149
131
131
131
132
132
132
146
146
146
139
139
139
132
132
132
131
131
131
149
149
149
131
131
131
132
132
132
143
143
143
143
143
143
131
132
131
190
189
106
255
255
72
255
255
73
244
244
63
242
242
61
242
242
61
242
242
61
242
242
61
242
242
61
242
242
61
242
242
61
242
246
62
237
68
57
242
61
61
242
61
61
237
68
57
242
246
62
242
242
61
242
242
61
242
242
61
242
242
61
242
242
61
242
242
61
242
242
61
244
244
63
255
255
73
255
255
71
190
189
106
131
132
131
143
143
143
143
143
143
132
132
132
131
131
131
149
149
149
131
131
131
132
132
132
139
139
139
146
146
146
132
132
132
131
131
131
149
149
149
133
133
133
132
132
132
133
133
133
242
242
242
242
242
242
255
255
255
253
253
253
129
129
129
128
128
128
129
129
129
145
145
145
127
127
127
128
128
128
142
142
142
135
135
135
128
128
128
127
127
127
146
146
146
127
127
127
128
128
128
139
139
139
139
139
139
128
128
128
123
123
130
172
171
123
243
244
69
255
255
62
255
255
63
255
255
63
255
255
63
255
255
63
255
255
63
255
255
63
255
255
63
255
255
65
250
71
61
254
64
64
254
64
64
250
71
61
255
255
65
255
255
63
255
255
63
255
255
63
255
255
63
255
255
63
255
255
63
255
255
63
255
255
62
243
243
69
172
172
123
123
123
130
128
128
128
139
139
139
139
139
139
128
128
128
127
127
127
146
146
146
127
127
127
128
128
128
135
135
135
142
142
142
128
128
128
127
127
127
145
145
145
129
129
129
128
128
128
129
129
129
253
253
253
255
255
255
255
255
255
255
255
255
128
128
128
127
127
127
128
128
128
145
145
145
126
126
126
127
127
127
142
142
142
135
135
135
127
127
127
127
127
127
145
145
145
126
126
126
127
127
127
139
139
139
139
139
139
127
127
127
126
126
126
145
145
146
123
123
126
207
208
88
250
249
65
255
255
62
255
255
63
255
255
63
255
255
63
255
255
63
255
255
63
255
255
65
250
71
61
255
64
64
254
64
64
250
71
61
255
255
65
255
255
63
255
255
63
255
255
63
255
255
63
255
255
63
255
255
62
250
249
65
207
208
88
123
123
125
145
145
147
126
126
126
127
127
127
139
139
139
139
139
139
127
127
127
126
126
126
145
145
145
127
127
127
127
127
127
135
135
135
142
142
142
127
127
127
126
126
126
145
145
145
128
128
128
127
127
127
128
128
128
255
255
255
255
255
255
140
140
140
155
155
155
162
162
162
159
159
159
160
160
160
171
171
171
159
159
159
159
159
159
169
169
169
164
164
164
159
159
159
159
159
159
172
172
172
159
159
159
159
159
159
167
167
167
167
167
167
159
159
159
159
159
159
172
172
172
159
159
159
158
159
159
168
168
160
220
219
115
255
255
60
255
255
62
255
255
63
255
255
64
255
255
63
255
255
65
250
71
61
255
64
64
254
64
64
250
71
61
255
255
65
255
255
63
255
255
64
255
255
63
255
255
62
255
255
60
220
219
115
168
168
160
159
159
159
159
159
159
172
172
172
159
159
159
159
159
159
167
167
167
167
167
167
159
159
159
159
159
159
172
172
172
159
159
159
159
159
159
164
164
164
169
169
169
159
159
159
159
159
159
171
171
171
160
160
160
159
159
159
162
162
162
155
155
155
140
140
140
0
0
0
30
30
30
134
134
134
126
126
126
127
127
127
144
144
144
125
125
125
126
126
126
141
141
141
134
134
134
126
126
126
126
126
126
145
145
145
125
125
125
126
126
126
138
138
138
138
138
138
126
126
126
125
125
125
145
145
145
126
126
126
126
126
126
134
134
134
139
139
143
133
132
126
163
163
109
205
205
100
236
236
71
255
255
63
255
255
61
255
68
57
255
61
62
255
61
62
255
68
57
255
255
61
255
255
63
236
236
71
205
205
99
163
163
109
133
132
126
139
139
143
134
134
134
126
126
126
126
126
126
145
145
145
125
125
125
126
126
126
138
138
138
138
138
138
126
126
126
125
125
125
145
145
145
126
126
126
126
126
126
134
134
134
141
141
141
126
126
126
125
125
125
144
144
144
127
127
127
126
126
126
134
134
134
30
30
30
0
0
0
0
0
0
35
35
35
135
135
135
128
128
128
129
129
129
145
145
145
127
127
127
128
128
128
142
142
142
135
135
135
128
128
128
127
127
127
146
146
146
127
127
127
128
128
128
139
139
139
139
139
139
128
128
128
127
127
127
146
146
146
127
127
127
128
128
128
135
135
135
142
142
142
128
128
128
127
127
127
144
144
147
123
123
132
122
122
130
147
147
123
169
126
125
168
107
108
168
107
108
169
126
125
147
147
123
122
122
130
123
123
132
144
144
147
127
127
127
128
128
128
142
142
142
135
135
135
128
128
128
127
127
127
146
146
146
127
127
127
128
128
128
139
139
139
139
139
139
128
128
128
127
127
127
146
146
146
127
127
127
128
128
128
135
135
135
142
142
142
128
128
128
127
127
127
145
145
145
129
129
129
128
128
128
135
135
135
35
35
35
0
0
0
0
0
0
34
34
34
135
135
135
128
128
128
129
129
129
145
145
145
126
126
126
127
127
127
141
141
141
136
136
136
128
128
128
128
128
128
145
145
145
126
126
126
127
127
127
138
138
138
140
140
140
128
128
128
127
127
127
146
146
146
126
126
126
127
127
127
134
134
134
143
143
143
128
128
128
127
127
127
146
146
146
128
128
128
127
127
127
131
131
131
145
145
145
128
128
128
128
128
129
145
145
145
131
131
131
127
127
127
128
128
128
146
146
146
127
127
127
128
128
128
143
143
143
134
134
134
127
127
127
126
126
126
146
146
146
127
127
127
128
128
128
140
140
140
138
138
138
127
127
127
126
126
126
145
145
145
128
128
128
128
128
128
136
136
136
141
141
141
127
127
127
126
126
126
145
145
145
129
129
129
128
128
128
135
135
135
34
34
34
0
0
0
221
221
221
222
222
222
29
29
29
34
34
34
33
33
33
209
209
209
244
244
244
244
244
244
255
255
255
22
22
22
34
34
34
34
34
34
164
164
164
244
244
244
244
244
244
255
255
255
19
19
19
34
34
34
34
34
34
116
116
116
244
244
244
244
244
244
255
255
255
24
24
24
34
34
34
34
34
34
71
71
71
244
244
244
244
244
244
250
250
250
39
39
39
34
34
34
34
34
34
39
39
39
250
250
250
244
244
244
244
244
244
71
71
71
34
34
34
34
34
34
24
24
24
255
255
255
244
244
244
244
244
244
116
116
116
34
34
34
34
34
34
19
19
19
255
255
255
244
244
244
244
244
244
164
164
164
34
34
34
34
34
34
22
22
22
255
255
255
244
244
244
244
244
244
209
209
209
33
33
33
34
34
34
29
29
29
222
222
222
221
221
221
